<svg id="Layer_1" data-name="Layer 1" xmlns="http://www.w3.org/2000/svg" viewBox="0 0 131.14 40"><defs><style>.cls-1{fill:#006aa1;}.cls-2{fill:#00add8;}</style></defs><path class="cls-1" d="M69.52,11.93a1.64,1.64,0,0,1,.4,1.15,3.23,3.23,0,0,1-.19,1.11l-5.67,17a2,2,0,0,1-1.8,1.26,1.91,1.91,0,0,1-1.16-.37,1.6,1.6,0,0,1-.67-.89l-3.75-13.9-4,13.9a1.82,1.82,0,0,1-.7.89,1.91,1.91,0,0,1-1.13.37,1.87,1.87,0,0,1-1.13-.37,1.84,1.84,0,0,1-.71-.89l-5.66-17a3.38,3.38,0,0,1-.16-1.07,1.43,1.43,0,0,1,1.61-1.61,1.78,1.78,0,0,1,1.21.42,3.08,3.08,0,0,1,.78,1.34L51,26.17,54.88,13a2.06,2.06,0,0,1,.67-1.06,1.9,1.9,0,0,1,1.24-.4,1.86,1.86,0,0,1,1.21.4A2.13,2.13,0,0,1,58.67,13l3.44,13.47,4.21-13.17c.36-1.17,1-1.76,2-1.76A1.6,1.6,0,0,1,69.52,11.93Z"/><path class="cls-1" d="M89.2,22.88a1.73,1.73,0,0,1-1.25.48H73.53a6.65,6.65,0,0,0,2.41,4.28,7.43,7.43,0,0,0,4.88,1.63,7.3,7.3,0,0,0,2.37-.41,7,7,0,0,0,2-1,2,2,0,0,1,1.25-.42,1.65,1.65,0,0,1,1.14.38,1.67,1.67,0,0,1,.68,1.29,1.36,1.36,0,0,1-.61,1.14,10.39,10.39,0,0,1-3.2,1.67,11.54,11.54,0,0,1-9.24-.7,9.76,9.76,0,0,1-3.85-3.74A10.64,10.64,0,0,1,70,22a11.26,11.26,0,0,1,1.31-5.45A9.58,9.58,0,0,1,75,12.83a10.39,10.39,0,0,1,5.3-1.35,9.52,9.52,0,0,1,5,1.29,8.48,8.48,0,0,1,3.27,3.61,12,12,0,0,1,1.13,5.31A1.56,1.56,0,0,1,89.2,22.88ZM75.75,16.26a6.81,6.81,0,0,0-2.18,4.06H86.2a6.72,6.72,0,0,0-1.89-4.06,5.58,5.58,0,0,0-4.06-1.52A6.57,6.57,0,0,0,75.75,16.26Z"/><path class="cls-1" d="M127.68,31.91a1.91,1.91,0,0,1-.56-1.41v-17a1.91,1.91,0,0,1,.56-1.43,2,2,0,0,1,1.41-.54,1.87,1.87,0,0,1,2,2v17a1.9,1.9,0,0,1-2,2A1.93,1.93,0,0,1,127.68,31.91Z"/><path class="cls-1" d="M97.79,9.4V4.12a2,2,0,0,0-3.33-1.4,1.9,1.9,0,0,0-.54,1.4V25.24h0v5.29a1.85,1.85,0,0,0,1.93,1.93,1.9,1.9,0,0,0,1.4-.54,1.88,1.88,0,0,0,.54-1.39V9.4Z"/><path class="cls-1" d="M121.55,16.54a9.76,9.76,0,0,0-3.72-3.74,10.65,10.65,0,0,0-5.37-1.34,10.22,10.22,0,0,0-6.6,2.12V4.12a1.91,1.91,0,0,0-.55-1.4,2.06,2.06,0,0,0-2.78,0,1.9,1.9,0,0,0-.54,1.4V22h0a10.92,10.92,0,0,0,1.33,5.43A9.53,9.53,0,0,0,107,31.17a11,11,0,0,0,5.43,1.34,10.85,10.85,0,0,0,5.41-1.34,9.64,9.64,0,0,0,3.7-3.74A11,11,0,0,0,122.89,22,11,11,0,0,0,121.55,16.54Zm-3.23,9.12a6.27,6.27,0,0,1-2.39,2.53,7.07,7.07,0,0,1-6.94,0,6.38,6.38,0,0,1-2.41-2.53,7.56,7.56,0,0,1-.87-3.66,7.72,7.72,0,0,1,.87-3.68A6.41,6.41,0,0,1,109,15.78a7.07,7.07,0,0,1,6.94,0,6.29,6.29,0,0,1,2.39,2.54,7.83,7.83,0,0,1,.86,3.68A7.67,7.67,0,0,1,118.32,25.66Z"/><path class="cls-1" d="M127.75,5.57a2,2,0,0,1,0-2.8,2,2,0,0,1,2.8,0,2,2,0,0,1,0,2.8,2,2,0,0,1-2.8,0Z"/><path class="cls-1" d="M69.52,11.93a1.64,1.64,0,0,1,.4,1.15,3.23,3.23,0,0,1-.19,1.11l-5.67,17a2,2,0,0,1-1.8,1.26,1.91,1.91,0,0,1-1.16-.37,1.6,1.6,0,0,1-.67-.89l-3.75-13.9-4,13.9a1.82,1.82,0,0,1-.7.89,1.91,1.91,0,0,1-1.13.37,1.87,1.87,0,0,1-1.13-.37,1.84,1.84,0,0,1-.71-.89l-5.66-17a3.38,3.38,0,0,1-.16-1.07,1.43,1.43,0,0,1,1.61-1.61,1.78,1.78,0,0,1,1.21.42,3.08,3.08,0,0,1,.78,1.34L51,26.17,54.88,13a2.06,2.06,0,0,1,.67-1.06,1.9,1.9,0,0,1,1.24-.4,1.86,1.86,0,0,1,1.21.4A2.13,2.13,0,0,1,58.67,13l3.44,13.47,4.21-13.17c.36-1.17,1-1.76,2-1.76A1.6,1.6,0,0,1,69.52,11.93Z"/><path class="cls-1" d="M89.2,22.88a1.73,1.73,0,0,1-1.25.48H73.53a6.65,6.65,0,0,0,2.41,4.28,7.43,7.43,0,0,0,4.88,1.63,7.3,7.3,0,0,0,2.37-.41,7,7,0,0,0,2-1,2,2,0,0,1,1.25-.42,1.65,1.65,0,0,1,1.14.38,1.67,1.67,0,0,1,.68,1.29,1.36,1.36,0,0,1-.61,1.14,10.39,10.39,0,0,1-3.2,1.67,11.54,11.54,0,0,1-9.24-.7,9.76,9.76,0,0,1-3.85-3.74A10.64,10.64,0,0,1,70,22a11.26,11.26,0,0,1,1.31-5.45A9.58,9.58,0,0,1,75,12.83a10.39,10.39,0,0,1,5.3-1.35,9.52,9.52,0,0,1,5,1.29,8.48,8.48,0,0,1,3.27,3.61,12,12,0,0,1,1.13,5.31A1.56,1.56,0,0,1,89.2,22.88ZM75.75,16.26a6.81,6.81,0,0,0-2.18,4.06H86.2a6.72,6.72,0,0,0-1.89-4.06,5.58,5.58,0,0,0-4.06-1.52A6.57,6.57,0,0,0,75.75,16.26Z"/><path class="cls-1" d="M127.68,31.91a1.91,1.91,0,0,1-.56-1.41v-17a1.91,1.91,0,0,1,.56-1.43,2,2,0,0,1,1.41-.54,1.87,1.87,0,0,1,2,2v17a1.9,1.9,0,0,1-2,2A1.93,1.93,0,0,1,127.68,31.91Z"/><path class="cls-1" d="M97.79,9.4V4.12a2,2,0,0,0-3.33-1.4,1.9,1.9,0,0,0-.54,1.4V25.24h0v5.29a1.85,1.85,0,0,0,1.93,1.93,1.9,1.9,0,0,0,1.4-.54,1.88,1.88,0,0,0,.54-1.39V9.4Z"/><path class="cls-1" d="M121.55,16.54a9.76,9.76,0,0,0-3.72-3.74,10.65,10.65,0,0,0-5.37-1.34,10.22,10.22,0,0,0-6.6,2.12V4.12a1.91,1.91,0,0,0-.55-1.4,2.06,2.06,0,0,0-2.78,0,1.9,1.9,0,0,0-.54,1.4V22h0a10.92,10.92,0,0,0,1.33,5.43A9.53,9.53,0,0,0,107,31.17a11,11,0,0,0,5.43,1.34,10.85,10.85,0,0,0,5.41-1.34,9.64,9.64,0,0,0,3.7-3.74A11,11,0,0,0,122.89,22,11,11,0,0,0,121.55,16.54Zm-3.23,9.12a6.27,6.27,0,0,1-2.39,2.53,7.07,7.07,0,0,1-6.94,0,6.38,6.38,0,0,1-2.41-2.53,7.56,7.56,0,0,1-.87-3.66,7.72,7.72,0,0,1,.87-3.68A6.41,6.41,0,0,1,109,15.78a7.07,7.07,0,0,1,6.94,0,6.29,6.29,0,0,1,2.39,2.54,7.83,7.83,0,0,1,.86,3.68A7.67,7.67,0,0,1,118.32,25.66Z"/><path class="cls-1" d="M127.75,5.57a2,2,0,0,1,0-2.8,2,2,0,0,1,2.8,0,2,2,0,0,1,0,2.8,2,2,0,0,1-2.8,0Z"/><path class="cls-1" d="M69.52,11.93a1.64,1.64,0,0,1,.4,1.15,3.23,3.23,0,0,1-.19,1.11l-5.67,17a2,2,0,0,1-1.8,1.26,1.91,1.91,0,0,1-1.16-.37,1.6,1.6,0,0,1-.67-.89l-3.75-13.9-4,13.9a1.82,1.82,0,0,1-.7.89,1.91,1.91,0,0,1-1.13.37,1.87,1.87,0,0,1-1.13-.37,1.84,1.84,0,0,1-.71-.89l-5.66-17a3.38,3.38,0,0,1-.16-1.07,1.43,1.43,0,0,1,1.61-1.61,1.78,1.78,0,0,1,1.21.42,3.08,3.08,0,0,1,.78,1.34L51,26.17,54.88,13a2.06,2.06,0,0,1,.67-1.06,1.9,1.9,0,0,1,1.24-.4,1.86,1.86,0,0,1,1.21.4A2.13,2.13,0,0,1,58.67,13l3.44,13.47,4.21-13.17c.36-1.17,1-1.76,2-1.76A1.6,1.6,0,0,1,69.52,11.93Z"/><path class="cls-1" d="M89.2,22.88a1.73,1.73,0,0,1-1.25.48H73.53a6.65,6.65,0,0,0,2.41,4.28,7.43,7.43,0,0,0,4.88,1.63,7.3,7.3,0,0,0,2.37-.41,7,7,0,0,0,2-1,2,2,0,0,1,1.25-.42,1.65,1.65,0,0,1,1.14.38,1.67,1.67,0,0,1,.68,1.29,1.36,1.36,0,0,1-.61,1.14,10.39,10.39,0,0,1-3.2,1.67,11.54,11.54,0,0,1-9.24-.7,9.76,9.76,0,0,1-3.85-3.74A10.64,10.64,0,0,1,70,22a11.26,11.26,0,0,1,1.31-5.45A9.58,9.58,0,0,1,75,12.83a10.39,10.39,0,0,1,5.3-1.35,9.52,9.52,0,0,1,5,1.29,8.48,8.48,0,0,1,3.27,3.61,12,12,0,0,1,1.13,5.31A1.56,1.56,0,0,1,89.2,22.88ZM75.75,16.26a6.81,6.81,0,0,0-2.18,4.06H86.2a6.72,6.72,0,0,0-1.89-4.06,5.58,5.58,0,0,0-4.06-1.52A6.57,6.57,0,0,0,75.75,16.26Z"/><path class="cls-1" d="M127.68,31.91a1.91,1.91,0,0,1-.56-1.41v-17a1.91,1.91,0,0,1,.56-1.43,2,2,0,0,1,1.41-.54,1.87,1.87,0,0,1,2,2v17a1.9,1.9,0,0,1-2,2A1.93,1.93,0,0,1,127.68,31.91Z"/><path class="cls-1" d="M97.79,9.4V4.12a2,2,0,0,0-3.33-1.4,1.9,1.9,0,0,0-.54,1.4V25.24h0v5.29a1.85,1.85,0,0,0,1.93,1.93,1.9,1.9,0,0,0,1.4-.54,1.88,1.88,0,0,0,.54-1.39V9.4Z"/><path class="cls-1" d="M121.55,16.54a9.76,9.76,0,0,0-3.72-3.74,10.65,10.65,0,0,0-5.37-1.34,10.22,10.22,0,0,0-6.6,2.12V4.12a1.91,1.91,0,0,0-.55-1.4,2.06,2.06,0,0,0-2.78,0,1.9,1.9,0,0,0-.54,1.4V22h0a10.92,10.92,0,0,0,1.33,5.43A9.53,9.53,0,0,0,107,31.17a11,11,0,0,0,5.43,1.34,10.85,10.85,0,0,0,5.41-1.34,9.64,9.64,0,0,0,3.7-3.74A11,11,0,0,0,122.89,22,11,11,0,0,0,121.55,16.54Zm-3.23,9.12a6.27,6.27,0,0,1-2.39,2.53,7.07,7.07,0,0,1-6.94,0,6.38,6.38,0,0,1-2.41-2.53,7.56,7.56,0,0,1-.87-3.66,7.72,7.72,0,0,1,.87-3.68A6.41,6.41,0,0,1,109,15.78a7.07,7.07,0,0,1,6.94,0,6.29,6.29,0,0,1,2.39,2.54,7.83,7.83,0,0,1,.86,3.68A7.67,7.67,0,0,1,118.32,25.66Z"/><path class="cls-1" d="M127.75,5.57a2,2,0,0,1,0-2.8,2,2,0,0,1,2.8,0,2,2,0,0,1,0,2.8,2,2,0,0,1-2.8,0Z"/><path class="cls-2" d="M35.16,17.79a1.35,1.35,0,0,0-1.4-1.31,1.32,1.32,0,0,0-.95.43,1.37,1.37,0,0,0-.37,1,5.57,5.57,0,0,1-1.46,4L17.58,36.61,4.19,21.85a5.6,5.6,0,0,1,8.27-7.55l4.12,4.52a1.37,1.37,0,0,0,2,0l4.12-4.52a5.63,5.63,0,0,1,4.85-1.78,1.36,1.36,0,0,0,1.25-2.18,1.39,1.39,0,0,0-.91-.52,8.35,8.35,0,0,0-7.2,2.65l-3.12,3.41-3.11-3.41a8.23,8.23,0,0,0-6-2.71,8.22,8.22,0,0,0-6.09,2.48,8.33,8.33,0,0,0-.22,11.44L16.58,39.55a1.35,1.35,0,0,0,2,0L33,23.68A8.24,8.24,0,0,0,35.16,17.79Z"/><path class="cls-1" d="M1.52,10.35A1.37,1.37,0,0,0,2.75,8.86a5.6,5.6,0,0,1,9.71-4.31l4.12,4.51a1.37,1.37,0,0,0,2,0l4.12-4.51A5.6,5.6,0,1,1,31,12.1L17.59,26.85l-5.25-5.79a1.36,1.36,0,1,0-2,1.82l6.25,6.92a1.39,1.39,0,0,0,1,.44h0a1.35,1.35,0,0,0,1-.44L33,13.93a8.33,8.33,0,0,0-.22-11.44,8.32,8.32,0,0,0-12.08.22L17.58,6.12,14.47,2.71A8.32,8.32,0,0,0,0,9.12,1.36,1.36,0,0,0,1.52,10.35Z"/></svg>